<?xml version="1.0" standalone="no"?>
<!DOCTYPE svg PUBLIC "-//W3C//DTD SVG 20010904//EN"
 "http://www.w3.org/TR/2001/REC-SVG-20010904/DTD/svg10.dtd">
<svg version="1.0" xmlns="http://www.w3.org/2000/svg"
 width="2112.000000pt" height="2112.000000pt" viewBox="0 0 2112.000000 2112.000000"
 preserveAspectRatio="xMidYMid meet">
<metadata>
Created by potrace 1.14, written by Peter Selinger 2001-2017
</metadata>
<g transform="translate(0.000000,2112.000000) scale(0.100000,-0.100000)"
fill="#000000" stroke="none">
<path d="M2575 15185 c-92 -13 -225 -39 -232 -45 -2 -2 -6 -3 -10 -4 -85 -19
-314 -123 -365 -165 -7 -6 -41 -31 -75 -56 -64 -47 -174 -153 -208 -201 -11
-15 -25 -32 -31 -38 -9 -10 -44 -66 -101 -161 -45 -76 -143 -336 -143 -381 0
-11 -3 -24 -7 -28 -4 -4 -8 -17 -9 -29 -3 -33 -15 -120 -19 -137 -11 -43 -17
-230 -17 -543 l0 -347 -36 6 c-77 15 -184 73 -261 143 -19 17 -39 31 -44 31
-6 0 -7 3 -4 7 4 3 -2 12 -13 20 -45 32 -198 238 -265 358 -57 102 -126 230
-127 235 0 6 -35 87 -47 110 -4 8 -22 25 -40 37 -30 20 -34 20 -84 6 -98 -27
-85 -22 -184 -79 -18 -11 -33 -22 -33 -26 0 -5 -5 -8 -10 -8 -19 0 -109 -104
-139 -160 -50 -93 -64 -148 -67 -250 -5 -219 102 -434 295 -590 24 -19 48 -40
55 -45 6 -6 34 -24 61 -40 28 -16 59 -35 70 -42 53 -32 232 -109 275 -118 8
-2 15 -4 15 -5 0 -1 7 -3 15 -5 8 -2 49 -13 90 -24 76 -20 252 -53 267 -50 4
1 19 -1 33 -4 14 -4 55 -8 93 -10 37 -2 69 -6 72 -9 3 -2 5 -801 5 -1775 0
-1918 -3 -1789 54 -1853 72 -81 275 -123 466 -96 30 4 63 8 73 9 9 1 17 4 17
8 0 4 15 11 33 14 17 4 39 13 47 20 8 8 20 14 25 15 16 2 60 42 79 71 21 33
24 49 31 162 3 51 7 99 9 107 3 8 7 35 10 60 8 60 23 141 41 225 1 6 5 28 10
50 13 65 21 102 31 145 3 14 7 34 9 45 2 11 4 20 5 20 2 0 17 61 24 100 1 6 5
16 9 23 5 6 6 12 3 12 -3 0 2 21 10 48 15 47 25 84 29 112 1 8 5 22 8 30 3 8
13 42 22 75 39 135 87 291 94 305 5 9 12 31 16 50 4 19 11 40 14 45 6 8 12 26
36 105 1 3 5 14 10 25 4 11 23 61 42 110 20 50 40 101 46 115 6 14 10 28 9 33
-1 4 2 7 6 7 5 0 9 6 9 13 0 28 176 379 209 418 8 8 14 20 14 26 0 6 3 13 8
15 4 2 20 22 35 46 58 89 157 195 227 242 135 91 285 94 369 9 71 -72 67 -19
68 -1154 1 -561 4 -1033 7 -1050 6 -29 16 -94 20 -125 1 -9 5 -21 10 -28 4 -6
5 -12 2 -12 -17 0 90 -248 120 -277 8 -8 14 -18 14 -22 0 -11 92 -113 131
-146 70 -59 216 -139 274 -150 11 -2 20 -4 20 -5 0 -5 111 -29 165 -36 129
-17 336 -4 414 26 13 5 27 6 30 3 3 -4 6 0 6 7 0 7 3 11 6 7 15 -15 209 78
318 153 166 113 322 272 434 442 31 47 60 87 64 87 4 1 25 -26 47 -58 41 -59
208 -235 269 -281 18 -14 43 -33 55 -43 141 -119 483 -280 662 -313 16 -3 31
-7 35 -9 4 -2 29 -7 56 -11 27 -3 58 -8 69 -11 92 -21 389 -20 490 0 11 3 40
8 65 12 47 8 66 11 100 20 11 3 28 7 38 9 53 12 138 39 147 47 5 5 16 9 24 9
19 0 225 101 274 134 21 14 40 26 43 26 7 0 133 97 172 134 83 75 212 211 212
222 0 2 10 15 23 29 12 14 48 67 79 118 32 51 61 97 65 102 13 16 99 205 118
260 10 28 23 56 28 63 5 6 7 12 4 12 -4 0 1 19 9 43 9 23 18 51 20 62 3 11 7
27 9 35 2 8 4 15 5 15 1 0 3 9 5 20 2 11 6 31 9 45 18 79 35 181 42 255 4 32
14 285 14 332 0 6 28 28 63 49 96 58 241 157 250 171 4 7 12 13 17 13 6 0 18
8 28 18 10 9 45 40 77 67 86 75 195 185 253 260 l21 27 0 -105 c-1 -58 2 -110
5 -116 4 -6 4 -11 -1 -11 -9 0 -8 -215 2 -230 3 -5 3 -10 -2 -10 -9 0 -8 -215
2 -230 3 -5 3 -10 -2 -10 -10 0 -9 -313 1 -329 4 -6 4 -11 -1 -11 -4 0 -8 -18
-8 -40 0 -22 4 -40 8 -40 5 0 5 -5 1 -12 -10 -16 -11 -68 -1 -68 5 0 5 -5 1
-12 -10 -16 -11 -68 -1 -68 5 0 5 -5 1 -12 -10 -16 -11 -68 -1 -68 5 0 5 -5 1
-12 -10 -16 -11 -68 -1 -68 5 0 5 -5 1 -12 -10 -16 -11 -68 -1 -68 5 0 5 -5 1
-12 -10 -16 -11 -68 -1 -68 5 0 5 -5 1 -12 -10 -16 -11 -68 -1 -68 5 0 5 -5 1
-11 -9 -15 -9 -103 0 -118 4 -6 4 -11 -1 -11 -9 0 -8 -215 2 -230 3 -5 3 -10
-2 -10 -9 0 -8 -215 2 -230 3 -5 2 -10 -4 -10 -5 0 -2 -19 7 -41 57 -145 286
-207 579 -155 7 1 16 5 19 9 4 4 15 7 25 7 23 0 107 45 137 73 37 34 51 68 58
143 14 159 21 228 29 299 3 28 8 68 10 90 11 109 29 250 40 310 3 17 13 64 21
105 9 41 18 89 21 105 7 42 11 60 13 60 2 0 5 14 13 55 3 14 13 54 22 90 9 36
19 73 21 83 5 21 9 35 31 117 10 36 21 67 26 68 4 2 5 7 2 11 -7 12 103 333
163 478 48 114 126 278 134 281 5 2 8 12 8 23 0 10 4 19 8 19 5 0 15 15 24 33
26 53 108 177 118 177 6 0 9 4 8 9 -6 18 110 145 182 201 25 19 47 38 50 41 3
4 18 11 33 14 15 4 27 11 27 15 0 5 17 14 38 20 20 6 44 14 52 17 21 8 47 11
100 14 101 4 181 -42 215 -124 9 -23 21 -49 25 -58 5 -9 6 -20 2 -23 -3 -4 -5
-25 -3 -47 1 -22 4 -487 5 -1032 2 -546 6 -1006 9 -1024 37 -196 95 -340 182
-452 28 -36 147 -151 156 -151 4 0 14 -6 21 -13 20 -20 177 -97 197 -97 10 0
21 -3 25 -7 3 -4 17 -8 29 -10 12 -2 38 -8 57 -13 173 -44 411 -28 595 40 98
36 265 126 265 142 0 4 6 8 13 8 6 0 29 15 49 33 21 17 50 42 66 54 59 46 182
176 241 255 l42 56 112 -112 c122 -121 172 -166 186 -166 5 0 11 -4 13 -9 9
-25 378 -234 378 -214 0 3 6 1 13 -4 10 -8 130 -52 160 -59 4 -1 8 -2 10 -4 1
-1 9 -3 17 -5 8 -2 24 -6 35 -9 195 -47 319 -61 550 -60 205 0 327 13 470 51
33 9 67 17 75 18 18 3 19 3 135 45 50 18 129 52 176 75 99 50 279 163 279 176
0 5 5 9 10 9 14 0 65 45 170 150 97 97 127 131 189 215 25 33 48 64 52 68 6 8
24 -50 33 -108 7 -46 41 -136 88 -232 59 -120 152 -227 257 -297 38 -26 72
-46 75 -46 3 0 25 -9 49 -19 154 -70 397 -95 547 -57 72 18 270 111 270 126 0
6 6 10 13 10 49 2 320 289 423 450 16 25 32 47 35 50 12 10 133 225 184 329
60 121 71 146 115 254 18 42 33 77 33 77 8 0 -1 -1312 -8 -1319 -10 -10 -59
-22 -101 -26 -11 -1 -24 -4 -30 -7 -5 -3 -25 -9 -46 -12 -20 -3 -81 -17 -135
-32 -54 -14 -102 -27 -108 -28 -94 -24 -335 -104 -351 -117 -6 -5 -14 -6 -17
-2 -4 3 -7 1 -7 -6 0 -7 -4 -10 -8 -7 -11 6 -214 -96 -307 -154 -103 -65 -140
-92 -244 -185 -215 -191 -365 -443 -424 -715 -30 -136 -28 -364 4 -495 43
-171 139 -367 232 -469 12 -14 36 -40 52 -58 142 -156 417 -303 625 -333 14
-2 36 -6 50 -9 14 -4 56 -8 94 -11 37 -2 70 -6 73 -8 2 -3 20 -1 39 3 19 5 37
4 40 -1 3 -5 10 -7 15 -3 5 3 50 7 98 9 49 3 102 7 120 10 17 3 44 7 61 10 29
5 150 32 180 39 52 14 185 70 240 101 36 20 73 39 83 42 9 3 17 9 17 14 0 5 4
9 10 9 26 0 198 151 275 241 43 52 165 238 165 254 0 2 12 30 27 62 15 32 28
65 29 73 2 8 7 23 13 35 12 23 40 118 47 155 3 21 11 53 19 80 1 3 5 30 9 60
5 30 10 64 12 74 10 57 15 228 15 539 l0 348 27 -5 c15 -2 27 -5 27 -6 0 -1
10 -3 22 -6 30 -5 133 -62 180 -99 55 -44 154 -144 188 -190 17 -22 33 -42 36
-45 9 -8 105 -152 133 -201 15 -24 65 -122 113 -217 48 -96 95 -177 104 -182
24 -13 71 -20 83 -12 6 3 19 8 29 9 51 8 199 97 262 158 54 52 125 171 125
209 0 8 4 17 8 20 23 14 21 254 -2 321 -53 148 -109 237 -212 339 -85 84 -90
88 -171 143 -53 35 -177 99 -258 133 -71 29 -207 69 -295 86 -14 2 -48 9 -76
15 -28 5 -66 12 -85 14 -19 2 -59 7 -89 11 -30 3 -71 8 -90 9 -19 1 -38 3 -42
4 -5 0 -8 801 -8 1780 0 1940 4 1816 -57 1872 -32 31 -104 69 -142 76 -14 2
-30 8 -36 12 -5 5 -17 9 -25 9 -55 4 -98 10 -106 13 -13 6 -140 2 -194 -6
-140 -21 -222 -60 -277 -131 -26 -35 -26 -39 -29 -202 -3 -209 -13 -440 -19
-473 -7 -30 -19 -136 -19 -166 -1 -13 -3 -23 -6 -23 -4 0 -6 -10 -6 -22 -1
-13 -9 -63 -18 -113 -10 -49 -20 -101 -22 -115 -6 -36 -25 -116 -41 -180 -8
-30 -16 -64 -18 -75 -2 -11 -4 -20 -5 -20 -1 0 -3 -7 -5 -15 -4 -16 -53 -189
-59 -205 -2 -5 -6 -17 -9 -25 -3 -8 -19 -55 -35 -105 -27 -80 -52 -150 -77
-210 -4 -11 -7 -23 -7 -27 1 -5 -3 -8 -8 -8 -5 0 -9 -3 -8 -7 3 -11 -35 -95
-104 -229 -60 -119 -183 -312 -239 -374 -157 -177 -243 -232 -361 -234 -58 -1
-71 3 -110 29 -24 17 -51 48 -62 70 -11 22 -23 48 -27 57 -20 40 -22 191 -23
1373 -2 1348 2 1264 -52 1320 -68 69 -215 114 -384 117 -58 1 -182 -12 -195
-20 -5 -4 -19 -8 -30 -9 -79 -13 -187 -97 -199 -156 -4 -18 -6 -484 -6 -1037
1 -713 -2 -1006 -9 -1008 -6 -2 -9 -8 -5 -13 3 -5 0 -9 -5 -9 -6 0 -11 -5 -11
-11 0 -10 -92 -135 -139 -189 -55 -62 -153 -160 -212 -210 -35 -30 -70 -61
-77 -67 -7 -7 -17 -13 -21 -13 -4 0 -16 -8 -27 -18 -10 -9 -41 -32 -69 -49
-27 -18 -54 -36 -60 -40 -5 -5 -23 -15 -40 -23 -16 -8 -32 -17 -35 -20 -3 -3
-25 -14 -50 -26 -25 -12 -65 -31 -90 -42 -47 -23 -164 -64 -215 -77 -45 -12
-47 -12 -96 -24 -101 -23 -289 -34 -301 -16 -5 7 -8 7 -8 -1 0 -19 -221 19
-295 51 -16 8 -52 23 -80 35 -66 28 -198 118 -257 174 -39 38 -105 114 -161
186 -7 8 -23 36 -37 63 -14 26 -28 47 -31 47 -4 0 -9 11 -11 25 -6 29 -7 29
37 11 19 -8 35 -13 35 -10 0 3 8 0 18 -5 9 -5 35 -12 57 -16 22 -3 56 -9 75
-12 43 -7 242 -7 290 0 35 5 106 17 125 21 6 2 42 12 80 24 39 12 74 21 79 21
5 0 12 3 15 8 3 4 42 26 86 48 83 41 237 140 243 156 2 5 8 9 13 9 10 0 48 33
132 116 61 60 79 81 129 149 21 27 42 55 47 62 14 16 113 210 129 253 84 220
112 473 78 700 -12 77 -15 94 -25 129 -6 18 -10 36 -9 40 0 3 -1 9 -2 14 -1 4
-3 10 -5 15 -4 14 -16 47 -36 97 -11 28 -22 55 -23 60 -7 24 -58 125 -66 130
-5 3 -17 21 -26 40 -9 19 -20 35 -25 35 -5 0 -9 5 -9 10 0 6 -5 16 -10 23 -59
70 -90 106 -120 134 -67 63 -125 113 -133 113 -4 0 -13 5 -20 10 -30 25 -92
62 -154 91 -109 50 -148 64 -263 94 -5 1 -88 14 -145 22 -46 7 -255 6 -300 -1
-47 -7 -89 -14 -127 -22 -15 -3 -31 -6 -35 -6 -22 -2 -207 -69 -219 -79 -8 -6
-14 -9 -14 -5 0 3 -15 -3 -33 -13 -72 -40 -102 -55 -109 -53 -5 1 -8 -2 -8 -8
0 -5 -6 -10 -14 -10 -8 0 -16 -3 -18 -7 -2 -5 -29 -25 -60 -47 -32 -21 -58
-42 -58 -47 0 -5 -5 -9 -11 -9 -11 0 -99 -80 -153 -139 -17 -19 -42 -46 -55
-60 -13 -14 -35 -44 -50 -66 -14 -22 -31 -44 -37 -50 -11 -10 -114 -181 -114
-190 0 -2 -18 -41 -39 -85 -22 -44 -37 -80 -35 -80 2 0 -2 -13 -10 -28 -14
-26 -80 -244 -90 -295 -3 -12 -12 -56 -21 -97 -9 -41 -19 -93 -22 -115 -8 -68
-12 -90 -13 -90 -6 0 -23 -262 -23 -360 0 -89 10 -254 19 -298 2 -12 7 -42 10
-67 3 -25 9 -61 14 -80 5 -19 11 -46 14 -60 2 -14 7 -32 10 -40 3 -8 7 -26 10
-40 2 -14 22 -79 45 -144 22 -65 37 -124 34 -130 -4 -6 -21 -22 -37 -36 -17
-14 -38 -32 -46 -41 -19 -18 -174 -119 -210 -137 -54 -25 -129 -51 -171 -58
-59 -9 -152 -12 -164 -5 -5 3 -18 7 -28 8 -45 7 -127 89 -127 128 0 8 -4 16
-9 19 -7 5 -12 25 -28 111 -2 11 -5 439 -7 950 -4 854 -7 1054 -21 1110 -22
92 -28 116 -41 155 -20 59 -86 190 -96 190 -4 0 -8 5 -8 11 0 25 -168 209
-191 209 -5 0 -12 7 -15 15 -4 8 -11 15 -17 15 -6 0 -18 6 -26 14 -51 45 -239
119 -361 141 -45 8 -230 12 -230 5 0 -4 -10 -6 -22 -7 -114 -4 -308 -77 -451
-169 -39 -26 -74 -50 -77 -53 -3 -4 -29 -26 -58 -50 -30 -25 -79 -72 -110
-105 -32 -33 -67 -70 -78 -82 -12 -12 -32 -37 -45 -56 -13 -18 -26 -35 -29
-38 -22 -17 -155 -227 -167 -262 -3 -10 -9 -18 -14 -18 -5 0 -8 -3 -7 -7 1 -5
-24 -58 -54 -120 -31 -62 -60 -123 -63 -135 -4 -13 -16 -43 -27 -67 -11 -24
-21 -52 -23 -62 -3 -17 -23 -59 -28 -59 -1 0 0 178 3 395 3 218 2 404 -1 413
-4 9 -4 21 -1 26 11 19 0 190 -14 217 -19 37 -57 75 -96 95 -35 18 -135 51
-158 52 -8 1 -35 4 -60 7 -60 7 -104 8 -165 2 -70 -7 -195 -39 -195 -49 0 -5
-4 -7 -9 -4 -13 8 -113 -66 -138 -102 -12 -18 -32 -63 -44 -100 -33 -99 -120
-259 -169 -313 -8 -9 -31 -35 -50 -59 -52 -65 -134 -144 -219 -213 -121 -98
-143 -113 -208 -148 -13 -7 -23 -16 -23 -21 0 -5 -4 -7 -8 -4 -5 3 -19 -4 -31
-15 -12 -11 -36 -25 -54 -31 -17 -6 -35 -15 -38 -20 -3 -5 -19 21 -35 59 -16
37 -32 70 -36 71 -5 2 -8 9 -8 15 0 15 -53 121 -63 125 -4 2 -5 8 -1 13 3 5 0
9 -5 9 -6 0 -11 5 -11 11 0 8 -85 147 -112 184 -88 117 -149 188 -234 272 -57
56 -104 100 -104 97 0 -3 -12 7 -27 21 -41 38 -281 195 -298 195 -3 0 -35 14
-72 31 -38 17 -77 35 -88 39 -22 10 -134 44 -150 46 -5 0 -28 6 -50 12 -22 6
-56 13 -75 16 -19 3 -61 9 -93 14 -93 14 -382 6 -447 -13 -8 -2 -31 -7 -50
-10 -19 -3 -53 -11 -75 -17 -22 -6 -44 -12 -50 -13 -5 -1 -12 -3 -15 -4 -8 -4
-44 -12 -57 -13 -7 -1 -13 -4 -13 -8 0 -4 -6 -7 -14 -7 -44 0 -334 -146 -422
-212 -12 -9 -32 -23 -44 -31 -100 -66 -360 -319 -360 -350 0 -5 -6 -13 -13
-17 -7 -4 -28 -33 -47 -63 -19 -30 -37 -57 -40 -60 -8 -8 -31 -50 -58 -105
-13 -27 -29 -53 -34 -56 -5 -3 -9 -9 -9 -13 1 -3 -6 -23 -15 -44 -63 -147
-128 -346 -149 -462 -3 -14 -7 -36 -10 -50 -3 -14 -8 -47 -11 -75 -3 -27 -8
-53 -10 -56 -9 -15 -18 -186 -18 -324 0 -142 6 -242 18 -310 3 -16 8 -43 11
-60 4 -25 23 -120 23 -120 1 0 3 -7 5 -15 2 -8 12 -41 21 -72 9 -32 17 -61 17
-65 1 -5 7 -23 15 -42 8 -18 14 -39 14 -45 0 -19 -198 -216 -218 -216 -4 0
-14 -9 -22 -20 -8 -11 -20 -20 -27 -20 -7 0 -13 -4 -13 -10 0 -5 -7 -10 -15
-10 -8 0 -15 -3 -15 -8 0 -4 -21 -18 -47 -32 -27 -13 -51 -28 -54 -33 -3 -5
-9 -8 -13 -8 -3 1 -22 -6 -42 -14 -57 -23 -132 -44 -138 -38 -3 4 -6 2 -6 -3
0 -6 -34 -9 -79 -9 -118 2 -178 38 -224 135 -21 46 -24 56 -30 100 -2 14 -6
30 -9 36 -4 5 -7 424 -8 929 0 506 -2 940 -4 965 -11 135 -18 192 -30 238 -8
28 -11 53 -8 56 3 3 0 6 -7 6 -7 0 -10 4 -7 9 16 25 -104 272 -157 326 -7 6
-28 29 -47 51 -51 56 -138 120 -211 155 -35 17 -68 32 -74 33 -5 1 -15 5 -21
8 -6 4 -21 9 -35 12 -76 17 -109 23 -109 18 0 -2 -6 0 -12 5 -14 11 -284 10
-333 -1 -16 -4 -49 -11 -72 -16 -23 -6 -68 -20 -100 -32 -32 -12 -60 -23 -63
-23 -11 -3 -97 -47 -129 -66 -109 -65 -317 -263 -365 -348 -5 -9 -12 -18 -16
-21 -19 -16 -113 -168 -182 -299 -37 -68 -162 -346 -173 -381 -1 -3 -9 -22
-18 -44 -9 -21 -17 -44 -17 -50 0 -7 -4 -16 -9 -21 -5 -6 -14 -27 -21 -48 -37
-117 -37 -115 -37 628 l0 715 25 7 c14 3 38 6 54 7 15 1 28 4 28 7 0 3 6 6 13
6 20 1 78 13 142 29 33 9 67 17 76 19 8 2 38 10 66 18 28 9 54 13 57 10 3 -4
6 -2 6 3 0 5 8 10 18 11 9 1 37 8 62 17 25 9 53 16 63 16 9 0 17 5 17 12 0 6
3 9 6 5 4 -3 21 0 39 8 19 7 36 11 39 7 3 -3 6 0 6 6 0 7 3 11 8 11 4 -1 10 0
15 1 4 1 10 3 15 4 4 1 24 10 46 19 21 9 41 17 43 17 3 0 51 23 107 51 103 52
290 172 360 231 65 54 186 179 231 238 109 141 210 351 239 494 3 12 20 108
21 116 0 3 4 10 8 17 4 6 3 14 -3 18 -6 4 -7 13 -2 23 10 18 8 153 -2 242 -8
68 -45 222 -57 234 -5 6 -9 17 -9 26 0 34 -107 225 -167 299 -73 89 -227 231
-252 231 -6 0 -11 4 -11 8 0 4 -22 19 -50 33 -27 13 -50 27 -50 32 0 4 -7 7
-15 7 -8 0 -30 9 -50 20 -19 11 -38 20 -43 21 -4 1 -18 6 -32 11 -14 6 -29 11
-35 12 -5 2 -30 8 -55 15 -25 7 -54 15 -65 17 -11 2 -31 6 -45 9 -61 14 -84
16 -245 19 -105 2 -205 -1 -260 -9z m403 -462 c72 -26 148 -81 183 -133 27
-39 70 -126 68 -138 -1 -4 0 -9 1 -12 9 -24 12 -62 15 -170 1 -69 -1 -129 -5
-135 -3 -5 -7 -25 -8 -44 -2 -18 -7 -42 -13 -52 -5 -11 -7 -19 -5 -19 9 0 -55
-171 -82 -220 -29 -52 -127 -204 -148 -229 -52 -59 -163 -178 -183 -195 -14
-12 -32 -28 -40 -36 -32 -30 -159 -120 -169 -120 -6 0 -12 -4 -14 -8 -3 -8
-143 -87 -163 -92 -5 -1 -21 -7 -35 -12 -67 -27 -155 -56 -160 -53 -7 4 -4
571 5 740 7 148 10 188 20 245 4 19 8 44 9 55 8 63 49 208 78 273 12 26 22 52
23 57 3 12 40 69 82 129 58 80 173 156 272 181 83 21 194 16 269 -12z m4202
-2677 c19 -2 49 -7 65 -11 37 -7 199 -84 203 -96 2 -5 8 -9 14 -9 5 0 15 -6
23 -12 7 -7 31 -28 53 -46 108 -87 228 -238 272 -342 6 -14 18 -38 26 -55 44
-87 121 -345 109 -365 -9 -15 -332 -20 -430 -6 -121 16 -142 21 -250 58 -234
79 -402 205 -479 359 -14 27 -23 49 -19 49 3 0 1 6 -5 13 -26 31 -30 153 -9
227 37 126 155 221 297 237 25 3 47 7 48 8 2 2 13 2 25 0 12 -3 38 -6 57 -9z
m7826 -59 c29 -14 70 -45 93 -68 40 -41 97 -141 105 -184 2 -11 9 -40 16 -64
18 -69 16 -253 -5 -351 -3 -14 -8 -38 -10 -53 -29 -157 -183 -457 -312 -606
-99 -115 -277 -271 -309 -271 -8 0 -14 -4 -14 -9 0 -10 -137 -81 -157 -81 -7
0 -13 -5 -13 -12 0 -6 -3 -9 -6 -5 -3 3 -23 -1 -44 -8 -43 -15 -56 -8 -64 36
-3 13 -5 24 -7 24 -1 0 -3 9 -5 20 -3 20 -5 27 -18 75 -46 171 -41 600 10 840
21 98 42 174 66 235 27 69 91 199 101 203 4 2 7 8 7 13 0 35 174 214 226 232
13 5 24 13 24 18 0 5 4 9 9 9 5 0 22 5 38 12 15 6 37 13 47 15 11 2 22 5 24 8
3 2 37 3 76 1 52 -2 84 -10 122 -29z m-8659 -997 c40 -56 171 -194 229 -240
66 -53 92 -69 97 -63 4 3 7 2 7 -4 0 -5 16 -18 35 -29 19 -10 35 -22 35 -26 0
-5 3 -7 8 -6 4 1 47 -17 95 -40 49 -23 90 -42 92 -42 2 0 16 -5 32 -12 15 -6
39 -13 53 -15 13 -2 30 -8 36 -14 6 -5 14 -6 17 -2 4 3 7 1 7 -6 0 -7 5 -9 10
-6 6 3 16 3 23 -2 6 -4 21 -9 32 -10 11 -2 43 -8 70 -13 132 -27 160 -30 265
-35 49 -2 94 -6 100 -10 5 -3 10 -1 10 5 0 7 6 8 19 1 10 -6 21 -8 24 -5 2 3
42 7 88 9 46 2 98 6 114 9 17 2 51 7 78 11 l47 6 -5 -31 c-3 -16 -7 -45 -10
-62 -6 -36 -43 -196 -50 -216 -3 -7 -5 -16 -6 -20 -1 -4 -8 -25 -16 -47 -8
-22 -18 -49 -22 -60 -25 -68 -118 -240 -162 -298 -51 -67 -156 -177 -169 -177
-4 0 -19 -10 -34 -23 -50 -43 -179 -101 -251 -113 -104 -16 -136 -19 -185 -18
-105 3 -220 25 -273 51 -16 8 -37 16 -47 18 -11 2 -32 12 -47 23 -15 10 -46
31 -68 45 -51 33 -131 110 -170 162 -17 22 -36 46 -43 53 -7 8 -20 28 -29 45
-9 18 -19 34 -22 37 -22 18 -123 238 -136 299 -2 9 -8 31 -14 49 -5 17 -7 32
-4 32 3 0 1 6 -5 13 -5 6 -13 34 -16 61 -4 27 -9 53 -12 57 -14 23 -26 459
-13 459 4 0 6 15 4 33 -4 48 32 311 51 367 3 8 21 -15 45 -60 23 -41 61 -104
86 -140z m12556 -3082 c-2 -290 -10 -590 -17 -623 -2 -11 -7 -48 -11 -82 -3
-34 -15 -97 -26 -140 -11 -43 -21 -82 -22 -88 -9 -37 -57 -150 -87 -202 -42
-74 -120 -172 -137 -173 -7 0 -13 -3 -13 -8 0 -19 -140 -82 -220 -99 -65 -13
-184 0 -250 29 -118 51 -213 164 -234 278 -3 19 -8 46 -11 60 -9 39 -4 265 5
265 2 0 4 11 13 55 10 47 49 165 65 195 9 17 17 35 18 41 2 13 55 100 112 185
23 35 71 95 107 135 17 18 37 41 46 51 57 65 212 191 294 238 28 16 52 32 55
35 4 4 97 51 110 55 3 1 12 5 21 9 40 18 174 63 179 61 3 -2 4 -126 3 -277z"/>
</g>
</svg>
